<?xml version="1.0" encoding="utf-8"?>
<svg version="1.1" xmlns:xlink="http://www.w3.org/1999/xlink" width="59px" height="59px" xmlns="http://www.w3.org/2000/svg">
  <g transform="matrix(1 0 0 1 -154 -25 )">
    <path d="M 183.5 25  C 200.02 25  213 37.98  213 54.5  C 213 71.02  200.02 84  183.5 84  C 166.98 84  154 71.02  154 54.5  C 154 37.98  166.98 25  183.5 25  Z " fill-rule="nonzero" fill="#ffffff" stroke="none" />
    <path d="M 183.5 25.5  C 199.74 25.5  212.5 38.26  212.5 54.5  C 212.5 70.74  199.74 83.5  183.5 83.5  C 167.26 83.5  154.5 70.74  154.5 54.5  C 154.5 38.26  167.26 25.5  183.5 25.5  Z " stroke-width="1" stroke="#797979" fill="none" />
  </g>
</svg>