<?xml version="1.0" encoding="utf-8"?>
<svg version="1.1" xmlns:xlink="http://www.w3.org/1999/xlink" width="41px" height="41px" xmlns="http://www.w3.org/2000/svg">
  <g transform="matrix(1 0 0 1 -24 -177 )">
    <path d="M 44.5 177  C 55.98 177  65 186.02  65 197.5  C 65 208.98  55.98 218  44.5 218  C 33.02 218  24 208.98  24 197.5  C 24 186.02  33.02 177  44.5 177  Z " fill-rule="nonzero" fill="#ffffff" stroke="none" />
    <path d="M 44.5 177.5  C 55.7 177.5  64.5 186.3  64.5 197.5  C 64.5 208.7  55.7 217.5  44.5 217.5  C 33.3 217.5  24.5 208.7  24.5 197.5  C 24.5 186.3  33.3 177.5  44.5 177.5  Z " stroke-width="1" stroke="#797979" fill="none" />
  </g>
</svg>