<?xml version="1.0" encoding="utf-8"?>
<svg version="1.1" xmlns:xlink="http://www.w3.org/1999/xlink" width="40px" height="40px" xmlns="http://www.w3.org/2000/svg">
  <g transform="matrix(1 0 0 1 -15 -496 )">
    <path d="M 35 496  C 46.2 496  55 504.8  55 516  C 55 527.2  46.2 536  35 536  C 23.8 536  15 527.2  15 516  C 15 504.8  23.8 496  35 496  Z " fill-rule="nonzero" fill="#ffffff" stroke="none" />
    <path d="M 35 496.5  C 45.92 496.5  54.5 505.08  54.5 516  C 54.5 526.92  45.92 535.5  35 535.5  C 24.08 535.5  15.5 526.92  15.5 516  C 15.5 505.08  24.08 496.5  35 496.5  Z " stroke-width="1" stroke="#797979" fill="none" />
  </g>
</svg>