<?xml version="1.0" encoding="utf-8"?>
<svg version="1.1" xmlns:xlink="http://www.w3.org/1999/xlink" width="38px" height="38px" xmlns="http://www.w3.org/2000/svg">
  <g transform="matrix(1 0 0 1 -277 -148 )">
    <path d="M 296 148  C 306.64 148  315 156.36  315 167  C 315 177.64  306.64 186  296 186  C 285.36 186  277 177.64  277 167  C 277 156.36  285.36 148  296 148  Z " fill-rule="nonzero" fill="#ffffff" stroke="none" />
    <path d="M 296 148.5  C 306.36 148.5  314.5 156.64  314.5 167  C 314.5 177.36  306.36 185.5  296 185.5  C 285.64 185.5  277.5 177.36  277.5 167  C 277.5 156.64  285.64 148.5  296 148.5  Z " stroke-width="1" stroke="#797979" fill="none" />
  </g>
</svg>